<?xml version="1.0" encoding="UTF-8"?>
<svg id="_Слой_1" data-name="Слой 1" xmlns="http://www.w3.org/2000/svg" viewBox="0 0 246.28 246.28">
  <defs>
    <style>
      .cls-1 {
        fill: #0c0b0b;
      }

      .cls-2 {
        fill: #007c53;
      }

      .cls-3 {
        fill: #161616;
      }
    </style>
  </defs>
  <g>
    <path class="cls-2" d="m195.09,37.64c4.79-6.42,10.53-11.34,17.2-14.76h-33.89c4.96,4.11,7.45,9.33,7.45,15.66,0,3.08-.86,6.64-2.57,10.65-1.71,4.02-4.28,8.86-7.7,14.51l-33.48,52.62,1.44.84,38.46-60.9c3.94-5.99,8.3-12.2,13.09-18.62Z"/>
    <path class="cls-3" d="m176.74,225.97h44.16c-.86-.34-1.63-.81-2.31-1.41-.69-.6-1.37-1.16-2.05-1.67-2.91-2.57-5.82-6.29-8.73-11.17-2.91-4.88-5.99-11.17-9.24-18.87L126.42,20.31,53.5,191.05c-.86,2.06-2.1,4.84-3.72,8.35-1.63,3.51-3.47,7.06-5.52,10.66-2.05,3.59-4.2,6.89-6.42,9.88-2.23,3-4.45,5.01-6.67,6.03h26.7l-1.03-.51c-2.91-2.39-4.75-4.75-5.52-7.06-.77-2.31-1.15-4.32-1.15-6.03,0-2.4.47-5.3,1.41-8.73.94-3.42,2.35-7.53,4.24-12.32,6.6-15.14,13.12-30.31,19.65-45.47,3.68-8.54,7.36-17.09,11.05-25.63,4.71-10.93,9.42-21.86,14.13-32.79,4.05-9.41,8.11-18.82,12.16-28.22,1.25-2.89,2.49-5.78,3.74-8.67.18-.41,1.6-2.82,1.4-3.25,2.14,5.11,4.28,10.22,6.42,15.33,4.79,11.44,9.58,22.88,14.38,34.33,5.01,11.96,10.02,23.91,15.02,35.87,5.34,12.74,10.18,25.69,15.6,38.39,2.25,5.27,4.5,10.54,6.74,15.81.21.49.42.99.63,1.48,2.39,5.48,4.11,10.23,5.13,14.25,1.03,4.02,1.54,7.32,1.54,9.89s-.51,5.01-1.54,7.32c-1.03,2.31-2.74,4.33-5.13,6.03Z"/>
    <path class="cls-2" d="m135.52,222.89c-3.94-4.11-5.91-13.52-5.91-28.24v-55.46l13.92-22.03-1.44-.84-13.25,20.82-49.55-76.51c-4.62-7.19-7.53-12.45-8.73-15.79-1.2-3.34-1.8-5.95-1.8-7.83,0-2.91.6-5.56,1.8-7.96,1.2-2.4,2.99-4.45,5.39-6.16H25.37c2.4,1.37,4.49,2.66,6.29,3.85,1.8,1.2,3.29,2.4,4.49,3.6,1.37,1.54,3.21,4.02,5.52,7.45,2.31,3.43,5.35,7.87,9.11,13.35l59.57,91.15v52.38c0,6.85-.3,12.37-.9,16.56-.6,4.2-1.76,7.41-3.47,9.63-1.37,1.71-3,3.43-4.88,5.13h37.74c-.51-.34-1.07-.81-1.67-1.41-.6-.6-1.15-1.16-1.67-1.67Z"/>
  </g>
  <path class="cls-1" d="m246.28,246.28H0V0h246.28v246.28Zm-243.99-2.28h241.71V2.28H2.28v241.71Z"/>
</svg>