<?xml version="1.0" encoding="UTF-8"?>
<svg id="_Слой_1" data-name="Слой 1" xmlns="http://www.w3.org/2000/svg" viewBox="0 0 360.54 122.55">
  <defs>
    <style>
      .cls-1 {
        fill: #0c0b0b;
      }

      .cls-2 {
        fill: #007c53;
      }

      .cls-3 {
        fill: #161616;
      }
    </style>
  </defs>
  <g>
    <g>
      <path class="cls-2" d="m97.08,18.73c2.38-3.19,5.24-5.64,8.56-7.35h-16.87c2.47,2.04,3.71,4.64,3.71,7.79,0,1.53-.43,3.3-1.28,5.3-.85,2-2.13,4.41-3.83,7.22l-16.66,26.18.72.42,19.14-30.3c1.96-2.98,4.13-6.07,6.52-9.26Z"/>
      <path class="cls-3" d="m87.95,112.45h21.98c-.43-.17-.81-.4-1.15-.7-.34-.3-.68-.58-1.02-.83-1.45-1.28-2.9-3.13-4.34-5.56-1.45-2.43-2.98-5.56-4.6-9.39L62.91,10.11,26.62,95.07c-.43,1.02-1.04,2.41-1.85,4.15-.81,1.75-1.72,3.51-2.75,5.3-1.02,1.79-2.09,3.43-3.19,4.92-1.11,1.49-2.21,2.49-3.32,3h13.29l-.51-.26c-1.45-1.19-2.36-2.36-2.75-3.51-.38-1.15-.57-2.15-.57-3,0-1.19.23-2.64.7-4.34.47-1.7,1.17-3.75,2.11-6.13,3.28-7.53,6.53-15.08,9.78-22.63,1.83-4.25,3.66-8.5,5.5-12.75,2.34-5.44,4.69-10.88,7.03-16.32,2.02-4.68,4.04-9.36,6.05-14.04.62-1.44,1.24-2.88,1.86-4.31.09-.2.8-1.4.7-1.62,1.07,2.54,2.13,5.09,3.2,7.63,2.38,5.69,4.77,11.39,7.15,17.08,2.49,5.95,4.98,11.9,7.48,17.85,2.66,6.34,5.07,12.78,7.76,19.1,1.12,2.62,2.24,5.25,3.36,7.87.1.25.21.49.31.74,1.19,2.73,2.04,5.09,2.55,7.09.51,2,.77,3.64.77,4.92s-.26,2.49-.77,3.64c-.51,1.15-1.36,2.15-2.55,3Z"/>
      <path class="cls-2" d="m67.44,110.91c-1.96-2.04-2.94-6.73-2.94-14.05v-27.6l6.92-10.96-.72-.42-6.59,10.36-24.66-38.07c-2.3-3.58-3.75-6.2-4.34-7.86-.6-1.66-.89-2.96-.89-3.9,0-1.45.3-2.77.89-3.96.59-1.19,1.49-2.21,2.68-3.07H12.63c1.19.68,2.24,1.32,3.13,1.92.89.6,1.64,1.19,2.24,1.79.68.77,1.6,2,2.75,3.71,1.15,1.7,2.66,3.92,4.54,6.64l29.64,45.36v26.06c0,3.41-.15,6.15-.45,8.24-.3,2.09-.87,3.69-1.72,4.79-.68.85-1.49,1.71-2.43,2.55h18.78c-.26-.17-.53-.4-.83-.7-.3-.3-.57-.58-.83-.83Z"/>
    </g>
    <path class="cls-1" d="m122.55,122.55H0V0h122.55v122.55Zm-121.42-1.14h120.28V1.14H1.14v120.28Z"/>
  </g>
  <g>
    <g>
      <g>
        <path d="m149.49,47.33c.43-.2.85-.58,1.28-1.15.42-.57.83-1.2,1.23-1.89.39-.69.74-1.36,1.05-2.04.31-.67.55-1.2.71-1.59l13.93-32.61,13.78,32.95c.62,1.47,1.21,2.67,1.77,3.6.56.93,1.11,1.64,1.67,2.13.13.1.26.21.39.32.13.11.28.2.44.27h-8.43c.46-.33.79-.71.98-1.15.2-.44.29-.91.29-1.4s-.1-1.12-.29-1.89c-.2-.77-.52-1.67-.98-2.72l-2.7-6.33h-17.41l-2.99,6.87c-.36.92-.63,1.7-.81,2.35-.18.65-.27,1.21-.27,1.67,0,.33.07.71.22,1.15.15.44.5.89,1.05,1.35l.2.1h-5.1Zm7.85-13.88h17.21l-8.48-20.25-8.73,20.25Z"/>
        <path d="m194.55,8.54l26.63,32.66V14.57c0-1.47-.09-2.63-.27-3.48s-.47-1.5-.86-1.96c-.1-.1-.2-.2-.32-.29-.11-.1-.22-.2-.32-.29h4.12c-.2.13-.38.29-.54.47-.16.18-.33.37-.49.56-.26.43-.47,1.04-.61,1.84-.15.8-.22,1.86-.22,3.16v32.81l-28.05-34.28v28.25c0,2.81.34,4.61,1.03,5.39.13.1.24.21.34.32.1.11.23.2.39.27h-4.12c.2-.16.38-.32.54-.47s.31-.32.44-.52c.56-.78.83-2.45.83-5V12.46l-.24-.29c-1.21-1.44-2.17-2.4-2.89-2.89-.33-.29-.72-.54-1.18-.74h5.79Z"/>
        <path d="m229.42,47.33c.2-.16.38-.33.56-.49.18-.16.35-.38.52-.64.06-.13.15-.31.24-.54s.19-.54.27-.93.16-.87.22-1.45c.07-.57.1-1.28.1-2.13V14.72c0-2.81-.38-4.66-1.13-5.54-.13-.1-.25-.2-.37-.32-.12-.11-.24-.22-.37-.32h11.52c1.08,0,2.21.02,3.38.07,1.18.05,2.36.15,3.56.29,1.19.15,2.35.35,3.48.61,1.13.26,2.17.61,3.11,1.03,1.7.75,3.17,1.74,4.41,2.97,1.24,1.23,2.27,2.59,3.09,4.09.82,1.5,1.43,3.12,1.84,4.85.41,1.73.61,3.48.61,5.25,0,5.43-1.62,9.95-4.86,13.58-1.18,1.31-2.5,2.35-3.97,3.14-1.47.78-3.02,1.39-4.63,1.81-1.62.43-3.27.71-4.95.86s-3.36.22-5.03.22h-11.62Zm25.4-5.2c3.3-3.5,4.95-8.19,4.95-14.07s-1.65-10.66-4.95-14.12c-1.24-1.34-2.66-2.35-4.24-3.02-1.59-.67-3.24-1.15-4.98-1.45-1.73-.29-3.51-.45-5.35-.47-1.83-.02-3.61-.02-5.34-.02v37.96c1.93,0,3.8.02,5.61.05s3.56-.07,5.22-.32c1.67-.24,3.26-.71,4.78-1.4,1.52-.69,2.95-1.73,4.29-3.14Z"/>
        <path class="cls-2" d="m287.53,8.54h9.66c-.46.33-.8.72-1.03,1.18-.23.46-.34.96-.34,1.52,0,.36.11.86.34,1.5.23.64.78,1.64,1.67,3.02l9.46,14.61,8.93-14.02c.65-1.08,1.14-2,1.47-2.77.33-.77.49-1.45.49-2.04,0-1.21-.47-2.21-1.42-2.99h6.47c-1.28.65-2.37,1.59-3.29,2.82s-1.75,2.41-2.5,3.56l-10,15.84v10.59c0,2.81.38,4.61,1.13,5.39.1.1.2.21.32.32.11.11.22.2.32.27h-7.21c.36-.33.67-.65.93-.98.33-.42.55-1.04.66-1.84.11-.8.17-1.85.17-3.16v-10l-11.38-17.41c-.72-1.05-1.3-1.9-1.74-2.55-.44-.65-.79-1.13-1.05-1.42-.23-.23-.52-.46-.86-.69-.34-.23-.74-.47-1.2-.74Z"/>
        <path d="m326.86,8.54h7.45c-.95.82-1.51,1.75-1.69,2.8-.18,1.05-.27,2.17-.27,3.38v17.85c0,2.03.15,3.97.44,5.81.29,1.85.87,3.47,1.74,4.86.87,1.39,2.06,2.5,3.58,3.33,1.52.83,3.51,1.25,5.96,1.25,2.88,0,5.44-.62,7.7-1.86,1.47-.82,2.62-1.75,3.43-2.8.82-1.05,1.42-2.19,1.81-3.43.39-1.24.63-2.58.71-4,.08-1.42.12-2.88.12-4.39V14.72c0-2.81-.38-4.66-1.13-5.54-.13-.1-.24-.2-.34-.32-.1-.11-.23-.22-.39-.32h4.56c-1.05.82-1.67,1.78-1.86,2.89-.2,1.11-.29,2.29-.29,3.53v16.58c0,1.47-.05,2.88-.15,4.24-.1,1.36-.33,2.65-.69,3.87s-.92,2.37-1.67,3.43c-.75,1.06-1.78,2.05-3.09,2.97-2.19,1.54-5.22,2.31-9.07,2.31-1.5,0-2.98-.12-4.44-.34-1.46-.23-2.81-.64-4.07-1.25-1.26-.6-2.36-1.41-3.31-2.43-.95-1.01-1.7-2.31-2.26-3.87-.65-1.7-.98-4.95-.98-9.76v-15.99c0-1.44-.1-2.61-.29-3.51-.2-.9-.52-1.61-.98-2.13-.07-.1-.14-.2-.22-.29s-.19-.18-.32-.24Z"/>
      </g>
      <g>
        <path d="m149.55,93.78c0-2.88.42-5.57,1.27-8.08.84-2.5,2.07-4.67,3.68-6.51,1.61-1.84,3.6-3.29,5.96-4.35,2.37-1.06,5.1-1.59,8.18-1.59h1.14c1.59,0,2.94.15,4.05.45,1.11.3,2.05.62,2.83.97.78.35,1.44.67,1.99.97.55.3,1.09.45,1.61.45.6,0,1.12-.14,1.57-.42.45-.28.84-.65,1.17-1.12l.55,7.51c-.63-1.19-1.4-2.29-2.31-3.31-.91-1.01-1.9-1.89-2.98-2.63-1.08-.75-2.23-1.33-3.45-1.74s-2.5-.62-3.83-.62c-3.02,0-5.58.54-7.7,1.62s-3.84,2.53-5.17,4.37c-1.33,1.84-2.29,3.97-2.88,6.39-.6,2.42-.89,4.97-.89,7.65s.3,5.24.89,7.68c.6,2.44,1.56,4.57,2.88,6.41s3.05,3.31,5.17,4.4,4.69,1.64,7.7,1.64c1.99,0,3.84-.36,5.57-1.09,1.72-.73,3.16-1.79,4.32-3.18v-10.49c0-1.52-.06-2.6-.17-3.23-.12-.63-.26-1.08-.42-1.34-.3-.63-.73-1.14-1.29-1.54h7.36c-.23.17-.41.34-.55.52-.13.18-.27.37-.4.57-.27.5-.46,1.14-.57,1.94-.12.8-.17,1.82-.17,3.08v8.05c0,1.49.06,2.56.17,3.21s.21,1.1.27,1.37c.3.7.81,1.26,1.54,1.69h-7.56c.56-.4.96-.84,1.19-1.32s.4-1.05.5-1.71c-.33.23-.75.57-1.24,1.02-.5.45-1.16.89-1.99,1.32-.83.43-1.87.81-3.13,1.14-1.26.33-2.8.51-4.62.55h-1.14c-3.08,0-5.81-.53-8.18-1.59-2.37-1.06-4.36-2.52-5.96-4.37-1.61-1.86-2.83-4.04-3.68-6.56-.84-2.52-1.27-5.24-1.27-8.15Z"/>
        <path d="m199.55,112.32c.2-.27.39-.75.57-1.47.18-.71.27-1.93.27-3.65v-26.79c0-1.49-.09-2.68-.27-3.58-.18-.9-.47-1.57-.87-2.04-.13-.1-.26-.21-.37-.32s-.24-.22-.37-.32l11.28.05c1.59,0,3.26.13,5.02.4,1.76.27,3.36.75,4.8,1.44s2.63,1.67,3.58,2.91c.94,1.24,1.42,2.86,1.42,4.85,0,1.42-.25,2.67-.75,3.73-.5,1.06-1.18,1.97-2.04,2.73-.86.76-1.86,1.39-2.98,1.89-1.13.5-2.32.88-3.58,1.14l-1.64.4,9.54,13.27c.46.63.94,1.27,1.44,1.91s1.03,1.26,1.62,1.84c.58.58,1.19,1.11,1.84,1.59.65.48,1.33.87,2.06,1.17h-6.06l-13.97-19.34c1.36-.2,2.63-.55,3.8-1.04,1.17-.5,2.21-1.16,3.11-1.99s1.6-1.81,2.11-2.96c.51-1.14.77-2.46.77-3.95s-.22-2.78-.67-3.98-1.15-2.24-2.11-3.13c-.56-.6-1.11-1.06-1.64-1.39-.53-.33-1.08-.57-1.64-.72-.56-.15-1.17-.25-1.81-.3-.65-.05-1.38-.07-2.21-.07h-5.77v32.61c0,2.95.38,4.82,1.14,5.62.23.3.48.52.75.65h-7.46c.2-.16.39-.33.57-.5.18-.16.36-.38.52-.65Z"/>
        <path d="m237.48,93.68c0-6.33,2.12-11.43,6.36-15.31,1.85-1.72,3.83-3.01,5.94-3.85,2.1-.85,4.45-1.27,7.03-1.27s4.97.47,7.26,1.42c2.29.95,4.37,2.39,6.26,4.35,3.71,3.84,5.57,8.7,5.57,14.56,0,3.02-.46,5.76-1.39,8.23-.93,2.47-2.34,4.7-4.22,6.69-1.86,1.92-3.98,3.4-6.36,4.42-2.39,1.03-4.86,1.54-7.41,1.54s-5.03-.49-7.33-1.47c-2.3-.98-4.37-2.41-6.19-4.3-3.68-3.84-5.52-8.85-5.52-15.01Zm4.87-.15c0,2.35.21,4.75.62,7.18.41,2.44,1.15,4.64,2.21,6.61,1.06,1.97,2.51,3.59,4.35,4.85s4.17,1.89,6.98,1.89,5.27-.56,7.16-1.69c1.89-1.13,3.38-2.61,4.47-4.45,1.09-1.84,1.86-3.94,2.31-6.29.45-2.35.67-4.76.67-7.21,0-7.36-1.49-12.87-4.47-16.55-1.19-1.56-2.59-2.65-4.2-3.28-1.61-.63-3.49-.94-5.64-.94-2.85,0-5.21.58-7.08,1.74-1.87,1.16-3.36,2.68-4.45,4.55-1.09,1.87-1.86,3.99-2.29,6.36-.43,2.37-.65,4.78-.65,7.23Z"/>
        <path d="m287.73,74.14h7.56c-.96.83-1.53,1.77-1.71,2.83-.18,1.06-.27,2.2-.27,3.43v18.09c0,2.06.15,4.02.45,5.89.3,1.87.89,3.51,1.77,4.92.88,1.41,2.09,2.53,3.63,3.38,1.54.84,3.55,1.27,6.04,1.27,2.91,0,5.52-.63,7.8-1.89,1.49-.83,2.65-1.77,3.48-2.83.83-1.06,1.44-2.22,1.84-3.48.4-1.26.64-2.61.72-4.05.08-1.44.12-2.92.12-4.45v-16.85c0-2.85-.38-4.72-1.14-5.62-.13-.1-.25-.21-.35-.32-.1-.12-.23-.22-.4-.32h4.62c-1.06.83-1.69,1.81-1.89,2.93-.2,1.13-.3,2.32-.3,3.58v16.8c0,1.49-.05,2.93-.15,4.3-.1,1.38-.33,2.68-.7,3.93-.37,1.24-.93,2.4-1.69,3.48-.76,1.08-1.81,2.08-3.13,3.01-2.22,1.56-5.29,2.34-9.2,2.34-1.52,0-3.02-.12-4.5-.35-1.47-.23-2.85-.65-4.13-1.27-1.28-.61-2.39-1.43-3.36-2.46-.96-1.03-1.72-2.34-2.29-3.93-.66-1.72-.99-5.02-.99-9.89v-16.2c0-1.46-.1-2.64-.3-3.55-.2-.91-.53-1.63-.99-2.16-.07-.1-.14-.2-.22-.3-.08-.1-.19-.18-.32-.25Z"/>
        <path d="m333.71,113.46c.2-.16.39-.33.57-.5.18-.16.36-.38.52-.65.2-.3.37-.8.52-1.49.15-.7.22-1.9.22-3.63v-26.79c0-1.49-.08-2.68-.25-3.58-.17-.9-.43-1.57-.8-2.04-.13-.1-.25-.21-.35-.32s-.23-.22-.4-.32h12.08c1.59,0,3.18.21,4.77.62,1.59.42,3.01,1.05,4.25,1.91s2.25,1.95,3.03,3.26c.78,1.31,1.17,2.86,1.17,4.65s-.29,3.23-.87,4.52c-.58,1.29-1.38,2.37-2.39,3.23s-2.21,1.51-3.6,1.94c-1.39.43-2.92.65-4.57.65h-8.35v12.28c0,2.95.38,4.82,1.14,5.62.23.3.48.52.75.65h-7.46Zm13.92-18.94c1.06,0,2-.32,2.83-.97.83-.65,1.52-1.44,2.09-2.39.56-.94.99-1.96,1.29-3.06.3-1.09.45-2.07.45-2.93,0-1.19-.19-2.41-.57-3.65s-.94-2.39-1.66-3.43c-.73-1.04-1.62-1.9-2.66-2.56-1.04-.66-2.23-.99-3.55-.99h-6.56v19.98h8.35Z"/>
      </g>
    </g>
    <path d="m149.27,60.78c67.27-.65,142.73-.66,210,0-67.27.66-142.73.65-210,0h0Z"/>
  </g>
</svg>