<svg width="20" height="20" viewBox="0 0 20 20" fill="none" xmlns="http://www.w3.org/2000/svg">
<path d="M16.8727 12.5045L13.1922 10.8553L13.182 10.8506C12.991 10.7689 12.7825 10.7361 12.5756 10.7552C12.3687 10.7743 12.1698 10.8447 11.9969 10.96C11.9765 10.9734 11.957 10.9881 11.9383 11.0037L10.0367 12.6248C8.83204 12.0397 7.58829 10.8053 7.00313 9.61625L8.62657 7.68578C8.64219 7.66625 8.65704 7.64672 8.6711 7.62562C8.78394 7.4532 8.85239 7.25556 8.87039 7.05029C8.88838 6.84502 8.85534 6.63848 8.77423 6.44906V6.43969L7.12032 2.75297C7.01309 2.50552 6.8287 2.29938 6.59468 2.16534C6.36067 2.0313 6.08958 1.97653 5.82188 2.00922C4.76326 2.14852 3.79155 2.66841 3.08824 3.47179C2.38492 4.27517 1.99809 5.3071 2.00001 6.37484C2.00001 12.578 7.04688 17.6248 13.25 17.6248C14.3177 17.6268 15.3497 17.2399 16.1531 16.5366C16.9564 15.8333 17.4763 14.8616 17.6156 13.803C17.6484 13.5354 17.5937 13.2643 17.4598 13.0303C17.3259 12.7963 17.12 12.6119 16.8727 12.5045ZM13.25 16.3748C10.5987 16.3719 8.05687 15.3174 6.18214 13.4427C4.3074 11.568 3.2529 9.02612 3.25001 6.37484C3.24707 5.61194 3.52192 4.87406 4.02324 4.29899C4.52456 3.72392 5.21806 3.35099 5.97423 3.24984C5.97392 3.25296 5.97392 3.2561 5.97423 3.25922L7.61485 6.93109L6.00001 8.8639C5.98362 8.88276 5.96873 8.90288 5.95548 8.92406C5.83791 9.10447 5.76894 9.31218 5.75525 9.52708C5.74157 9.74197 5.78362 9.95676 5.87735 10.1506C6.58516 11.5983 8.04376 13.0459 9.50704 13.753C9.70232 13.8458 9.91835 13.8864 10.134 13.8708C10.3497 13.8552 10.5576 13.7839 10.7375 13.6639C10.7576 13.6504 10.7769 13.6358 10.7953 13.6202L12.6945 11.9998L16.3664 13.6444C16.3664 13.6444 16.3727 13.6444 16.375 13.6444C16.2751 14.4016 15.9027 15.0965 15.3275 15.5991C14.7524 16.1016 14.0138 16.3774 13.25 16.3748Z" fill="black"/>
</svg>
