<svg width="21" height="17" viewBox="0 0 21 17" fill="none" xmlns="http://www.w3.org/2000/svg">
<path d="M20.708 0.185996C20.5918 0.0950177 20.4504 0.0345114 20.2991 0.0109954C20.1477 -0.0125207 19.9922 0.00184494 19.8492 0.0525444L0.849972 6.79396C0.58071 6.88889 0.352748 7.06056 0.200406 7.28313C0.048064 7.50569 -0.0204124 7.76711 0.00528589 8.02801C0.0309842 8.28891 0.149466 8.53519 0.342895 8.72976C0.536323 8.92433 0.794228 9.05666 1.07778 9.10683L6.00056 9.98318V14.96C5.99959 15.2311 6.08844 15.4962 6.2556 15.7209C6.42275 15.9457 6.66051 16.1197 6.93805 16.2205C7.21517 16.3231 7.51992 16.3478 7.81268 16.2912C8.10544 16.2347 8.37266 16.0996 8.5796 15.9035L10.9533 13.6714L14.7192 16.66C14.9909 16.8785 15.3414 16.9994 15.7046 17C15.8637 16.9999 16.0219 16.9772 16.1733 16.9328C16.4207 16.8617 16.6433 16.7329 16.8188 16.5595C16.9943 16.386 17.1166 16.1739 17.1736 15.9443L20.9789 0.934852C21.0129 0.799488 21.0057 0.658277 20.958 0.526356C20.9102 0.394435 20.8238 0.276778 20.708 0.185996ZM14.9761 3.24602L6.57712 8.69967L1.92715 7.87262L14.9761 3.24602ZM7.50055 14.96V10.9241L9.8246 12.7721L7.50055 14.96ZM15.7064 15.64L7.95523 9.47743L19.1114 2.22771L15.7064 15.64Z" fill="black"/>
</svg>
