<svg width="18" height="18" viewBox="0 0 18 18" fill="none" xmlns="http://www.w3.org/2000/svg">
<path d="M13.6545 10.3156L11.1545 9.06562C11.0561 9.01659 10.9465 8.99438 10.8368 9.00123C10.727 9.00809 10.621 9.04378 10.5295 9.10469L9.38185 9.87031C8.85502 9.58069 8.42147 9.14715 8.13185 8.62031L8.89748 7.47266C8.95839 7.38112 8.99407 7.27514 9.00093 7.1654C9.00779 7.05567 8.98558 6.94606 8.93654 6.84766L7.68654 4.34766C7.63473 4.24302 7.55465 4.155 7.45536 4.09355C7.35608 4.0321 7.24158 3.9997 7.12482 4C6.29602 4 5.50116 4.32924 4.91511 4.91529C4.32906 5.50134 3.99982 6.2962 3.99982 7.125C4.00189 8.94773 4.72688 10.6952 6.01575 11.9841C7.30461 13.2729 9.05209 13.9979 10.8748 14C11.2852 14 11.6916 13.9192 12.0707 13.7621C12.4499 13.6051 12.7943 13.3749 13.0845 13.0847C13.3747 12.7945 13.6049 12.45 13.7619 12.0709C13.919 11.6917 13.9998 11.2854 13.9998 10.875C13.9999 10.7589 13.9676 10.645 13.9066 10.5462C13.8457 10.4474 13.7583 10.3676 13.6545 10.3156ZM10.8748 12.75C9.38349 12.7483 7.95371 12.1552 6.89917 11.1006C5.84464 10.0461 5.25148 8.61633 5.24982 7.125C5.2497 6.6915 5.39979 6.27135 5.67456 5.93605C5.94932 5.60075 6.33178 5.37101 6.75685 5.28594L7.65373 7.08281L6.89045 8.21875C6.83341 8.30431 6.79836 8.40262 6.78841 8.50496C6.77847 8.60731 6.79392 8.71053 6.83341 8.80547C7.28059 9.86827 8.12608 10.7138 9.18888 11.1609C9.28411 11.2022 9.38811 11.2191 9.4915 11.2101C9.59489 11.2011 9.6944 11.1665 9.78107 11.1094L10.9225 10.3484L12.7194 11.2453C12.6336 11.6709 12.4029 12.0535 12.0665 12.3279C11.7301 12.6023 11.3089 12.7515 10.8748 12.75ZM8.99982 0.875C7.59706 0.874694 6.21812 1.23757 4.99721 1.9283C3.7763 2.61904 2.75501 3.6141 2.03277 4.81664C1.31052 6.01918 0.911915 7.38822 0.875748 8.79052C0.839581 10.1928 1.16709 11.5806 1.82638 12.8188L0.939664 15.4789C0.866215 15.6992 0.855555 15.9355 0.908881 16.1615C0.962207 16.3874 1.07741 16.5941 1.24158 16.7582C1.40575 16.9224 1.61239 17.0376 1.83836 17.0909C2.06432 17.1443 2.30067 17.1336 2.52091 17.0602L5.18107 16.1734C6.27073 16.753 7.47811 17.0767 8.71156 17.12C9.94501 17.1633 11.1721 16.925 12.2997 16.4232C13.4273 15.9215 14.4258 15.1694 15.2194 14.2241C16.0129 13.2789 16.5807 12.1652 16.8796 10.9678C17.1785 9.77029 17.2007 8.52047 16.9445 7.31315C16.6882 6.10584 16.1603 4.97276 15.4008 3.99993C14.6413 3.02711 13.6701 2.24009 12.561 1.69864C11.4519 1.15718 10.234 0.875506 8.99982 0.875ZM8.99982 15.875C7.79121 15.8758 6.6038 15.5575 5.55763 14.9523C5.48104 14.9079 5.39587 14.8803 5.30779 14.8713C5.21971 14.8622 5.13071 14.872 5.0467 14.9L2.12482 15.875L3.09904 12.9531C3.12712 12.8692 3.13705 12.7802 3.12816 12.6921C3.11927 12.604 3.09177 12.5188 3.04748 12.4422C2.28964 11.132 1.98537 9.60827 2.18187 8.10747C2.37837 6.60667 3.06466 5.21267 4.13426 4.14171C5.20387 3.07076 6.597 2.38271 8.09755 2.18431C9.5981 1.98592 11.1222 2.28826 12.4334 3.04444C13.7445 3.80062 14.7695 4.96837 15.3493 6.36652C15.9291 7.76468 16.0313 9.3151 15.64 10.7773C15.2487 12.2394 14.3858 13.5316 13.1852 14.4533C11.9846 15.375 10.5134 15.8748 8.99982 15.875Z" fill="black"/>
</svg>
